<?xml version="1.0" standalone="no"?>
<!DOCTYPE svg PUBLIC "-//W3C//DTD SVG 20010904//EN"
 "http://www.w3.org/TR/2001/REC-SVG-20010904/DTD/svg10.dtd">
<svg version="1.0" xmlns="http://www.w3.org/2000/svg"
 width="512.000000pt" height="512.000000pt" viewBox="0 0 512.000000 512.000000"
 preserveAspectRatio="xMidYMid meet">

<g transform="translate(0.000000,512.000000) scale(0.100000,-0.100000)"
fill="#000000" stroke="none">
<path d="M2430 5114 c-421 -52 -780 -283 -992 -639 -109 -183 -166 -381 -175
-610 -6 -157 8 -267 52 -420 101 -348 383 -667 722 -815 97 -43 301 -100 357
-100 17 0 41 -3 54 -6 l22 -6 0 -1214 c0 -1328 -2 -1272 57 -1295 43 -16 85 0
105 41 17 33 18 113 18 1251 l0 1217 23 6 c12 3 36 6 53 6 56 0 260 57 357
100 135 59 258 143 373 253 216 207 341 447 390 747 19 115 14 337 -11 450
-114 520 -505 905 -1030 1015 -78 16 -305 28 -375 19z m-160 -635 c70 -33 136
-99 169 -169 22 -46 26 -69 26 -145 0 -76 -4 -99 -26 -145 -52 -111 -163 -188
-284 -198 -282 -22 -472 287 -322 525 36 56 111 119 171 143 73 29 191 24 266
-11z"/>
</g>
</svg>
